<svg width="31" height="30" viewBox="0 0 31 30" fill="none" xmlns="http://www.w3.org/2000/svg">
<path d="M16.3856 21.9291L15.5335 22.7424C15.1727 23.0868 14.5892 23.0868 14.2323 22.7424L6.7706 15.6236C6.4098 15.2792 6.4098 14.7223 6.7706 14.3815L14.2323 7.25903C14.5931 6.91463 15.1765 6.91463 15.5335 7.25903L16.3856 8.07241C16.7502 8.42047 16.7425 8.98837 16.3702 9.3291L11.7451 13.5352H22.7764C23.2869 13.5352 23.6976 13.9272 23.6976 14.4145V15.5869C23.6976 16.0742 23.2869 16.4663 22.7764 16.4663H11.7451L16.3702 20.6724C16.7464 21.0131 16.754 21.581 16.3856 21.9291Z" fill="#353535"/>
</svg>
