<svg width="23" height="21" viewBox="0 0 23 21" fill="none" xmlns="http://www.w3.org/2000/svg">
<mask id="path-1-inside-1_25368_773" fill="white">
<path d="M20.365 1.43593C18.0103 -0.753131 14.5083 -0.359381 12.347 2.07343L11.5005 3.02499L10.654 2.07343C8.49701 -0.359381 4.99076 -0.753131 2.63607 1.43593C-0.0623634 3.94843 -0.204161 8.45781 2.21068 11.1812L10.5251 20.5469C11.0622 21.1516 11.9345 21.1516 12.4716 20.5469L20.7861 11.1812C23.2052 8.45781 23.0634 3.94843 20.365 1.43593Z"/>
</mask>
<path d="M20.365 1.43593C18.0103 -0.753131 14.5083 -0.359381 12.347 2.07343L11.5005 3.02499L10.654 2.07343C8.49701 -0.359381 4.99076 -0.753131 2.63607 1.43593C-0.0623634 3.94843 -0.204161 8.45781 2.21068 11.1812L10.5251 20.5469C11.0622 21.1516 11.9345 21.1516 12.4716 20.5469L20.7861 11.1812C23.2052 8.45781 23.0634 3.94843 20.365 1.43593Z" stroke="#101010" stroke-width="2" mask="url(#path-1-inside-1_25368_773)"/>
</svg>
