<svg width="139" height="27" viewBox="0 0 139 27" fill="none" xmlns="http://www.w3.org/2000/svg">
<path d="M6.966 8.478C8.598 8.478 9.798 8.808 10.566 9.468C11.346 10.128 11.736 10.992 11.736 12.06C11.736 12.42 11.688 12.822 11.592 13.266C11.364 14.25 10.938 15.114 10.314 15.858C9.69 16.59 8.922 17.16 8.01 17.568C7.11 17.964 6.132 18.162 5.076 18.162C3.408 18.162 2.172 17.832 1.368 17.172C0.576 16.5 0.18 15.612 0.18 14.508C0.18 14.136 0.228 13.722 0.324 13.266C0.552 12.33 0.984 11.502 1.62 10.782C2.268 10.05 3.054 9.486 3.978 9.09C4.914 8.682 5.91 8.478 6.966 8.478ZM6.912 10.08C6.66 10.08 6.39 10.308 6.102 10.764C5.826 11.208 5.496 12.054 5.112 13.302C4.728 14.55 4.536 15.426 4.536 15.93C4.536 16.194 4.578 16.374 4.662 16.47C4.746 16.554 4.86 16.596 5.004 16.596C5.256 16.62 5.514 16.404 5.778 15.948C6.054 15.492 6.396 14.604 6.804 13.284C7.176 12.12 7.362 11.274 7.362 10.746C7.362 10.494 7.32 10.32 7.236 10.224C7.164 10.128 7.056 10.08 6.912 10.08ZM22.4949 15.516C22.4709 15.564 22.4589 15.636 22.4589 15.732C22.4589 15.816 22.4769 15.882 22.5129 15.93C22.5609 15.978 22.6209 16.002 22.6929 16.002C22.8369 16.002 22.9569 15.942 23.0529 15.822C23.1609 15.69 23.2329 15.624 23.2689 15.624C23.3289 15.624 23.3769 15.666 23.4129 15.75C23.4489 15.822 23.4669 15.912 23.4669 16.02C23.4789 16.368 23.3649 16.71 23.1249 17.046C22.8849 17.37 22.5309 17.64 22.0629 17.856C21.6069 18.06 21.0549 18.162 20.4069 18.162C19.6149 18.162 18.9849 17.982 18.5169 17.622C18.0489 17.25 17.8089 16.758 17.7969 16.146C17.7969 15.702 17.9049 15.204 18.1209 14.652L19.1109 12.06C19.1709 11.904 19.2009 11.778 19.2009 11.682C19.2009 11.526 19.1469 11.406 19.0389 11.322C18.9429 11.226 18.8229 11.178 18.6789 11.178C18.4509 11.178 18.2169 11.286 17.9769 11.502C17.7489 11.706 17.5629 12.042 17.4189 12.51V12.474L16.2849 16.128C16.2489 16.272 16.2309 16.398 16.2309 16.506C16.2309 16.662 16.2609 16.788 16.3209 16.884C16.3809 16.968 16.4649 17.052 16.5729 17.136C16.6569 17.22 16.7169 17.292 16.7529 17.352C16.7889 17.4 16.7949 17.466 16.7709 17.55C16.7109 17.706 16.5909 17.82 16.4109 17.892C16.2309 17.964 15.9549 18 15.5829 18H11.4789C11.1669 18 10.9389 17.952 10.7949 17.856C10.6509 17.748 10.6029 17.61 10.6509 17.442C10.6989 17.298 10.8249 17.172 11.0289 17.064C11.2089 16.968 11.3589 16.854 11.4789 16.722C11.5989 16.59 11.7009 16.38 11.7849 16.092L14.5209 7.11C14.5569 7.002 14.5749 6.912 14.5749 6.84C14.5749 6.708 14.5389 6.6 14.4669 6.516C14.4069 6.432 14.3229 6.348 14.2149 6.264C14.0949 6.168 14.0049 6.084 13.9449 6.012C13.8969 5.94 13.8909 5.844 13.9269 5.724C13.9989 5.448 14.3769 5.208 15.0609 5.004C15.7449 4.8 16.4589 4.698 17.2029 4.698C17.8989 4.698 18.4089 4.83 18.7329 5.094C19.0689 5.358 19.2369 5.718 19.2369 6.174C19.2369 6.438 19.1949 6.696 19.1109 6.948L18.1389 10.116C18.6069 9.504 19.0989 9.078 19.6149 8.838C20.1429 8.598 20.7129 8.478 21.3249 8.478C22.0569 8.478 22.6449 8.7 23.0889 9.144C23.5449 9.588 23.7729 10.164 23.7729 10.872C23.7729 11.244 23.7129 11.61 23.5929 11.97L22.4949 15.516ZM41.3582 15.516C41.3342 15.564 41.3222 15.636 41.3222 15.732C41.3222 15.816 41.3402 15.882 41.3762 15.93C41.4242 15.978 41.4842 16.002 41.5562 16.002C41.7002 16.002 41.8202 15.942 41.9162 15.822C42.0242 15.69 42.0962 15.624 42.1322 15.624C42.1922 15.624 42.2402 15.666 42.2762 15.75C42.3122 15.822 42.3302 15.912 42.3302 16.02C42.3422 16.368 42.2282 16.71 41.9882 17.046C41.7482 17.37 41.3942 17.64 40.9262 17.856C40.4702 18.06 39.9182 18.162 39.2702 18.162C38.4782 18.162 37.8482 17.982 37.3802 17.622C36.9122 17.25 36.6722 16.758 36.6602 16.146C36.6602 15.702 36.7682 15.204 36.9842 14.652L37.9742 12.06C38.0342 11.904 38.0642 11.778 38.0642 11.682C38.0642 11.526 38.0102 11.406 37.9022 11.322C37.8062 11.226 37.6862 11.178 37.5422 11.178C37.3382 11.178 37.1282 11.268 36.9122 11.448C36.6962 11.628 36.5042 11.91 36.3362 12.294L35.3462 15.516C35.3222 15.564 35.3102 15.636 35.3102 15.732C35.3102 15.816 35.3282 15.882 35.3642 15.93C35.4122 15.978 35.4722 16.002 35.5442 16.002C35.6882 16.002 35.8082 15.942 35.9042 15.822C36.0122 15.69 36.0842 15.624 36.1202 15.624C36.1802 15.624 36.2282 15.666 36.2642 15.75C36.3002 15.822 36.3182 15.912 36.3182 16.02C36.3302 16.368 36.2162 16.71 35.9762 17.046C35.7362 17.37 35.3822 17.64 34.9142 17.856C34.4582 18.06 33.9062 18.162 33.2582 18.162C32.4662 18.162 31.8362 17.982 31.3682 17.622C30.9002 17.25 30.6602 16.758 30.6482 16.146C30.6482 15.702 30.7562 15.204 30.9722 14.652L31.9622 12.06C32.0222 11.904 32.0522 11.778 32.0522 11.682C32.0522 11.526 31.9982 11.406 31.8902 11.322C31.7942 11.226 31.6742 11.178 31.5302 11.178C31.3262 11.178 31.1162 11.268 30.9002 11.448C30.6842 11.616 30.5042 11.892 30.3602 12.276L29.1722 16.128C29.1242 16.26 29.1002 16.386 29.1002 16.506C29.1002 16.65 29.1302 16.77 29.1902 16.866C29.2502 16.95 29.3342 17.04 29.4422 17.136C29.5262 17.208 29.5862 17.274 29.6222 17.334C29.6582 17.394 29.6642 17.466 29.6402 17.55C29.5922 17.706 29.4782 17.82 29.2982 17.892C29.1182 17.964 28.8362 18 28.4522 18H24.3482C24.0362 18 23.8142 17.952 23.6822 17.856C23.5382 17.748 23.4842 17.61 23.5202 17.442C23.5682 17.298 23.6942 17.172 23.8982 17.064C24.0782 16.968 24.2282 16.854 24.3482 16.722C24.4682 16.59 24.5702 16.38 24.6542 16.092L26.2562 10.89C26.2802 10.83 26.2922 10.746 26.2922 10.638C26.2922 10.506 26.2622 10.404 26.2022 10.332C26.1542 10.26 26.0702 10.17 25.9502 10.062C25.8302 9.966 25.7462 9.882 25.6982 9.81C25.6502 9.738 25.6442 9.642 25.6802 9.522C25.7522 9.246 26.1302 9.006 26.8142 8.802C27.4982 8.586 28.2122 8.478 28.9562 8.478C29.5442 8.478 30.0062 8.64 30.3422 8.964C30.6902 9.288 30.8582 9.732 30.8462 10.296C31.3382 9.612 31.8542 9.138 32.3942 8.874C32.9462 8.61 33.5402 8.478 34.1762 8.478C34.8722 8.478 35.4362 8.682 35.8682 9.09C36.3122 9.486 36.5582 10.008 36.6062 10.656C37.1222 9.84 37.6742 9.276 38.2622 8.964C38.8502 8.64 39.4922 8.478 40.1882 8.478C40.9202 8.478 41.5082 8.7 41.9522 9.144C42.4082 9.588 42.6362 10.164 42.6362 10.872C42.6362 11.244 42.5762 11.61 42.4562 11.97L41.3582 15.516ZM52.4658 8.478C52.9938 8.478 53.4138 8.694 53.7258 9.126C54.0498 9.546 54.2118 10.122 54.2118 10.854C54.2118 11.49 54.0978 12.174 53.8698 12.906C53.4258 14.382 52.7118 15.774 51.7278 17.082C50.7558 18.39 49.6338 19.44 48.3618 20.232C47.1018 21.024 45.8418 21.42 44.5818 21.42C43.9578 21.42 43.4178 21.312 42.9618 21.096C42.5178 20.88 42.1818 20.592 41.9538 20.232C41.7138 19.872 41.5938 19.488 41.5938 19.08C41.5938 18.9 41.6238 18.702 41.6838 18.486C41.7918 18.15 41.9718 17.892 42.2238 17.712C42.4758 17.532 42.7758 17.442 43.1238 17.442C43.6758 17.442 44.1258 17.628 44.4738 18C44.8338 18.384 45.0618 18.906 45.1578 19.566C45.9258 19.53 46.6338 19.2 47.2818 18.576C46.6698 18.468 46.2138 18.264 45.9138 17.964C45.6258 17.652 45.4278 17.172 45.3198 16.524L44.5998 12.114C44.5638 11.886 44.5098 11.73 44.4378 11.646C44.3778 11.55 44.2938 11.502 44.1858 11.502C44.1018 11.502 43.9998 11.544 43.8798 11.628C43.7718 11.712 43.6938 11.754 43.6458 11.754C43.5498 11.754 43.5018 11.652 43.5018 11.448C43.5018 11.28 43.5318 11.1 43.5918 10.908C43.8078 10.224 44.2098 9.648 44.7978 9.18C45.3858 8.7 46.0698 8.46 46.8498 8.46C47.6178 8.46 48.1818 8.688 48.5418 9.144C48.9138 9.6 49.1538 10.302 49.2618 11.25L49.8018 15.21C49.8378 15.51 49.9458 15.66 50.1258 15.66C50.3418 15.66 50.5938 15.468 50.8818 15.084C51.1698 14.688 51.4518 14.13 51.7278 13.41C51.3678 13.086 51.0918 12.714 50.8998 12.294C50.7078 11.874 50.6118 11.424 50.6118 10.944C50.6118 10.572 50.6598 10.236 50.7558 9.936C50.8998 9.456 51.1218 9.096 51.4218 8.856C51.7338 8.604 52.0818 8.478 52.4658 8.478ZM61.4319 4.698C62.7159 4.698 63.6759 4.896 64.3119 5.292C64.9599 5.676 65.2839 6.15 65.2839 6.714C65.2839 7.17 65.0919 7.524 64.7079 7.776C64.3359 8.016 63.8439 8.136 63.2319 8.136C62.6679 8.136 62.2299 7.998 61.9179 7.722C61.6059 7.446 61.4499 7.104 61.4499 6.696C61.4499 6.444 61.5279 6.18 61.6839 5.904C61.3239 5.904 61.0239 5.994 60.7839 6.174C60.5439 6.342 60.3579 6.636 60.2259 7.056C60.1539 7.32 60.1179 7.566 60.1179 7.794C60.1179 8.082 60.1659 8.31 60.2619 8.478C60.3699 8.634 60.5199 8.712 60.7119 8.712H61.7739C62.3979 8.712 62.7099 8.904 62.7099 9.288C62.7099 9.336 62.6979 9.408 62.6739 9.504C62.6019 9.768 62.4519 9.966 62.2239 10.098C62.0079 10.23 61.6779 10.296 61.2339 10.296H60.6939L58.9119 16.128C58.8759 16.272 58.8579 16.398 58.8579 16.506C58.8579 16.662 58.8879 16.788 58.9479 16.884C59.0079 16.968 59.0919 17.052 59.1999 17.136C59.2839 17.22 59.3439 17.292 59.3799 17.352C59.4159 17.4 59.4219 17.466 59.3979 17.55C59.3379 17.706 59.2179 17.82 59.0379 17.892C58.8579 17.964 58.5819 18 58.2099 18H54.1059C53.7939 18 53.5659 17.952 53.4219 17.856C53.2779 17.748 53.2299 17.61 53.2779 17.442C53.3259 17.298 53.4519 17.172 53.6559 17.064C53.8359 16.968 53.9859 16.854 54.1059 16.722C54.2259 16.59 54.3279 16.38 54.4119 16.092L55.8159 11.484C55.8759 11.304 55.9059 11.118 55.9059 10.926C55.9059 10.686 55.8519 10.5 55.7439 10.368C55.6479 10.224 55.4979 10.068 55.2939 9.9C55.1619 9.792 55.0599 9.702 54.9879 9.63C54.9279 9.546 54.8979 9.45 54.8979 9.342C54.8859 9.114 54.9639 8.952 55.1319 8.856C55.3119 8.76 55.6479 8.712 56.1399 8.712H56.5899C56.5059 8.412 56.4639 8.112 56.4639 7.812C56.4639 7.512 56.5179 7.2 56.6259 6.876C56.8539 6.264 57.3399 5.748 58.0839 5.328C58.8399 4.908 59.9559 4.698 61.4319 4.698ZM68.5422 8.478C70.1742 8.478 71.3742 8.808 72.1422 9.468C72.9222 10.128 73.3122 10.992 73.3122 12.06C73.3122 12.42 73.2642 12.822 73.1682 13.266C72.9402 14.25 72.5142 15.114 71.8902 15.858C71.2662 16.59 70.4982 17.16 69.5862 17.568C68.6862 17.964 67.7082 18.162 66.6522 18.162C64.9842 18.162 63.7482 17.832 62.9442 17.172C62.1522 16.5 61.7562 15.612 61.7562 14.508C61.7562 14.136 61.8042 13.722 61.9002 13.266C62.1282 12.33 62.5602 11.502 63.1962 10.782C63.8442 10.05 64.6302 9.486 65.5542 9.09C66.4902 8.682 67.4862 8.478 68.5422 8.478ZM68.4882 10.08C68.2362 10.08 67.9662 10.308 67.6782 10.764C67.4022 11.208 67.0722 12.054 66.6882 13.302C66.3042 14.55 66.1122 15.426 66.1122 15.93C66.1122 16.194 66.1542 16.374 66.2382 16.47C66.3222 16.554 66.4362 16.596 66.5802 16.596C66.8322 16.62 67.0902 16.404 67.3542 15.948C67.6302 15.492 67.9722 14.604 68.3802 13.284C68.7522 12.12 68.9382 11.274 68.9382 10.746C68.9382 10.494 68.8962 10.32 68.8122 10.224C68.7402 10.128 68.6322 10.08 68.4882 10.08ZM80.3547 8.478C81.9867 8.478 83.1867 8.808 83.9547 9.468C84.7347 10.128 85.1247 10.992 85.1247 12.06C85.1247 12.42 85.0767 12.822 84.9807 13.266C84.7527 14.25 84.3267 15.114 83.7027 15.858C83.0787 16.59 82.3107 17.16 81.3987 17.568C80.4987 17.964 79.5207 18.162 78.4647 18.162C76.7967 18.162 75.5607 17.832 74.7567 17.172C73.9647 16.5 73.5687 15.612 73.5687 14.508C73.5687 14.136 73.6167 13.722 73.7127 13.266C73.9407 12.33 74.3727 11.502 75.0087 10.782C75.6567 10.05 76.4427 9.486 77.3667 9.09C78.3027 8.682 79.2987 8.478 80.3547 8.478ZM80.3007 10.08C80.0487 10.08 79.7787 10.308 79.4907 10.764C79.2147 11.208 78.8847 12.054 78.5007 13.302C78.1167 14.55 77.9247 15.426 77.9247 15.93C77.9247 16.194 77.9667 16.374 78.0507 16.47C78.1347 16.554 78.2487 16.596 78.3927 16.596C78.6447 16.62 78.9027 16.404 79.1667 15.948C79.4427 15.492 79.7847 14.604 80.1927 13.284C80.5647 12.12 80.7507 11.274 80.7507 10.746C80.7507 10.494 80.7087 10.32 80.6247 10.224C80.5527 10.128 80.4447 10.08 80.3007 10.08ZM95.2632 15.408C95.2392 15.504 95.2272 15.57 95.2272 15.606C95.2272 15.69 95.2512 15.756 95.2992 15.804C95.3472 15.852 95.4072 15.876 95.4792 15.876C95.6232 15.876 95.7432 15.816 95.8392 15.696C95.9472 15.564 96.0192 15.498 96.0552 15.498C96.1152 15.498 96.1632 15.54 96.1992 15.624C96.2352 15.708 96.2532 15.804 96.2532 15.912C96.2652 16.236 96.1392 16.566 95.8752 16.902C95.6232 17.238 95.2812 17.514 94.8492 17.73C94.4172 17.946 93.9492 18.054 93.4452 18.054C92.8452 18.054 92.3232 17.94 91.8792 17.712C91.4352 17.484 91.1292 17.184 90.9612 16.812C90.6372 17.232 90.2652 17.544 89.8452 17.748C89.4252 17.952 88.9812 18.054 88.5132 18.054C87.9612 18.054 87.4452 17.916 86.9652 17.64C86.4972 17.364 86.1192 16.974 85.8312 16.47C85.5552 15.954 85.4172 15.372 85.4172 14.724C85.4172 13.632 85.6212 12.606 86.0292 11.646C86.4492 10.674 87.0312 9.894 87.7752 9.306C88.5192 8.706 89.3652 8.406 90.3132 8.406C90.8292 8.406 91.2672 8.466 91.6272 8.586C91.9992 8.706 92.3352 8.886 92.6352 9.126L93.2472 7.11C93.2832 7.002 93.3012 6.912 93.3012 6.84C93.3012 6.708 93.2652 6.6 93.1932 6.516C93.1332 6.432 93.0492 6.348 92.9412 6.264C92.8212 6.168 92.7312 6.084 92.6712 6.012C92.6232 5.94 92.6172 5.844 92.6532 5.724C92.7252 5.448 93.1032 5.208 93.7872 5.004C94.4712 4.8 95.1852 4.698 95.9292 4.698C96.6252 4.698 97.1352 4.83 97.4592 5.094C97.7952 5.358 97.9632 5.718 97.9632 6.174C97.9632 6.438 97.9212 6.696 97.8372 6.948L95.2632 15.408ZM92.2572 10.35C92.0652 10.182 91.8552 10.098 91.6272 10.098C91.2792 10.098 90.9372 10.356 90.6012 10.872C90.2652 11.388 89.9952 12.012 89.7912 12.744C89.5872 13.476 89.4912 14.136 89.5032 14.724C89.5032 15.384 89.7192 15.714 90.1512 15.714C90.3072 15.714 90.4392 15.654 90.5472 15.534C90.6552 15.402 90.7572 15.192 90.8532 14.904L92.2572 10.35Z" fill="white"/>
</svg>
